# xmcd CD database file
#
# Track frame offsets:
#	150
#	8065
#	26462
#	45437
#	68583
#	86485
#	105983
#	126487
#	145842
#	156517
#	168001
#	186279
#	208058
#	223588
#	237398
#	249008
#
# Disc length: 3627 seconds
#
# Revision: 0
# Processed by: cddbd v1.5.1PL0 Copyright (c) Steve Scherf et al.
# Submitted via: CDex 1.51
#
DISCID=cf0e2910
DTITLE=Bernie Marsden - Big Boy Blue (Advance Edition)
DYEAR=2002
DGENRE=Blues
TTITLE0=Burn Your Bridges
TTITLE1=Working For The CSA
TTITLE2=Downhome Blues
TTITLE3=Funny People
TTITLE4=Dream On
TTITLE5=Man Or Mouse
TTITLE6=Place In My Heart
TTITLE7=Loved Another Woman
TTITLE8=Key To Love
TTITLE9=Wiggin's Wail
TTITLE10=Memphis
TTITLE11=Someday After A While
TTITLE12=ToreDown
TTITLE13=Do It If You Wanna
TTITLE14=Looking Back
TTITLE15=Tone Down
EXTD=YEAR: 2002
EXTT0=
EXTT1=
EXTT2=
EXTT3=
EXTT4=
EXTT5=
EXTT6=
EXTT7=
EXTT8=
EXTT9=
EXTT10=
EXTT11=
EXTT12=
EXTT13=
EXTT14=
EXTT15=
PLAYORDER=
